PathFileType	4	(X/Y/Z)	Patient4_TMGait_0pt2_02_left_09.trc.trc
DataRate	CameraRate	NumFrames	NumMarkers	Units	OrigDataRate	OrigDataStartFrame	OrigNumFrames
41.791044776119	41.791044776119	5	33	mm	41.791044776119	1	       141
Frame#	Time	R.Midfoot.Superior			Sacral			L.Shoulder			Chest			R.Shoulder			Neck			R.ASIS			L.ASIS			R.Thigh.Superior			R.Thigh.Lateral			R.Thigh.Inferior			R.Patella			L.Thigh.Superior			L.Thigh.Lateral			L.Thigh.Inferior			L.Patella			L.Shank.Superior			L.Shank.Lateral			L.Shank.Inferior			R.Shank.Superior			R.Shank.Lateral			R.Shank.Inferior			R.Heel			R.Midfoot.Lateral			R.Toe			L.Heel			L.Midfoot.Lateral			L.Midfoot.Superior			L.Toe			L.Elbow			L.Wrist			R.Elbow			R.Wrist			
		X1	Y1	Z1	X2	Y2	Z2	X3	Y3	Z3	X4	Y4	Z4	X5	Y5	Z5	X6	Y6	Z6	X7	Y7	Z7	X8	Y8	Z8	X9	Y9	Z9	X10	Y10	Z10	X11	Y11	Z11	X12	Y12	Z12	X13	Y13	Z13	X14	Y14	Z14	X15	Y15	Z15	X16	Y16	Z16	X17	Y17	Z17	X18	Y18	Z18	X19	Y19	Z19	X20	Y20	Z20	X21	Y21	Z21	X22	Y22	Z22	X23	Y23	Z23	X24	Y24	Z24	X25	Y25	Z25	X26	Y26	Z26	X27	Y27	Z27	X28	Y28	Z28	X29	Y29	Z29	X30	Y30	Z30	X31	Y31	Z31	X32	Y32	Z32	X33	Y33	Z33	

1	20.290000000000	1063.974395053920	96.550224939932	598.848281995487	831.508795825106	1001.081149123818	545.047180728931	1052.291038981312	1419.481727750909	371.941100340967	1125.220265691318	1352.228316186631	548.192610993552	1020.896685901311	1433.889707268877	705.349767645714	1013.240760989982	1487.155472449937	524.277258044629	1054.163384005157	935.920914192648	679.098465088669	1058.057631011257	951.183529793459	403.245915916442	1109.723925038826	741.128875500349	633.022837994444	1035.574366532123	622.151520801553	684.823302900590	1114.894801322044	578.852551565954	600.885571427397	1121.786061779391	486.095087493434	602.075528806764	1108.330543635423	743.254290125731	425.933167732491	1035.697956393216	626.674317326932	346.522186495940	1123.178185145058	546.420874124181	408.725617418228	1120.203813362708	461.683705880593	400.008775254207	1054.609097177346	403.219508988058	384.496001434040	918.454519515556	358.244041576998	325.351448154238	907.787143195472	225.239515913781	370.443379438760	1084.389151924929	397.453603815910	604.506682820027	1008.652585678681	296.239593901805	665.370939827240	1038.135855791148	202.003373274526	595.867844828147	891.373855355062	43.520748625545	569.308136937750	977.468051394214	37.173284931233	639.930753204561	1185.116536728909	44.772112053948	621.471361887311	720.297296640819	148.633823206851	397.247383963023	782.761049134763	108.491659713987	318.197601586244	885.669571251428	123.742911880902	341.950584737494	973.121895729398	32.566161658426	315.265475848984	1124.392776255128	1078.138778994031	244.182204009234	1332.175085820978	915.578586307345	256.301421127617	924.082091028789	1097.462413115116	824.514068701806	953.867223000506	835.707678407030	850.585962875000	
2	20.313928571429	1059.496152087296	96.413363808120	598.525272051249	829.930019885740	997.450618929167	551.235549130208	1046.635301568277	1415.464120687331	372.656910905965	1123.524453181716	1348.921079793069	547.366171620373	1022.844821757410	1430.902925588326	706.641757188781	1011.467858196779	1483.875625762854	525.580498904514	1055.353305116663	933.164349552137	681.006536627105	1053.748716024255	948.874923931835	405.600736983484	1112.246098517607	739.338047567782	633.337949438206	1040.169346826701	619.218366371893	684.998727314712	1118.686785083895	577.229700903384	599.470226432299	1126.128680727535	483.509007008151	599.993502473595	1111.327734350137	745.455622458958	430.095352864586	1044.551243248739	626.876426798266	350.409525637652	1134.031681261073	549.554195131375	414.045345686459	1133.329983059591	463.612763169137	404.599849166538	1066.386355175067	404.620951399173	388.329223630647	928.878540572682	363.823598828438	328.999071766853	914.878929277702	230.747203029764	373.051827186680	1086.872509320633	394.955977968945	603.057569537061	1009.714381344052	295.070465492290	664.541276937638	1036.482718521478	200.578263308922	594.945475562670	886.807765587478	43.658665950386	569.338136006909	972.909786811086	37.250806721136	639.919580878375	1180.595093862003	44.291762982647	621.465231702392	725.248194962021	161.925429285575	399.542438369547	785.754437237274	119.754511415334	319.808948098562	889.228652737404	129.100861348097	343.604125652842	970.905543401033	31.617175944558	315.207934081880	1104.915392862929	1069.433986350285	250.424775402361	1287.964307366962	887.903444484446	258.717198707369	941.185657944635	1092.307817254332	830.223247031442	989.302217889813	835.331598810740	856.086469387347	
3	20.337857142857	1054.787542641730	96.274759160375	598.197959936858	828.337496728940	993.835433807570	557.596119002099	1040.700807928051	1411.424224476537	373.385143786283	1121.762957156725	1345.591524818254	546.412791707767	1024.975619192691	1427.903651180698	707.917819229983	1009.644721304863	1480.582589022513	526.895015751271	1056.572203868726	930.343508495406	682.843549605931	1049.228776695673	946.536675210495	407.937911908552	1114.678835241528	737.451531348397	633.531885169429	1044.681156061655	616.245013333478	685.107615789237	1122.278389838876	575.537531380682	597.924911760587	1130.235236406819	480.871499253655	597.779451058149	1114.147940516391	747.814327715307	434.210909845846	1053.214551650518	627.231036494317	354.324949539537	1144.728990960880	552.919595265410	419.344947536167	1146.378028803246	465.808686614773	409.179892526604	1078.213619178210	406.189846304280	392.201474380592	939.315231974879	369.154337031634	332.940149582269	922.495930816205	235.886081366566	375.911139857186	1089.124797324506	392.409858584014	601.515841541021	1010.579284278523	293.870977914865	663.677473504725	1034.600594958724	199.129216484642	593.998839515403	882.016493215274	43.784251290365	569.382423676338	968.122121100450	37.321983767823	639.921152797051	1175.843708097981	43.828407978804	621.454495666730	730.964955488839	173.667520301592	402.382458111696	789.633354838238	130.076696146520	321.787079839303	893.692435631157	134.224061534533	345.467098308524	970.279302097598	31.076933983086	314.955864879581	1083.909700794773	1060.905849375624	256.742533297780	1240.946557840492	860.977039102095	261.551232478919	959.316429877817	1087.325769233577	835.949298320655	1027.014052861979	836.202682255570	861.122864501562	
4	20.361785714286	1049.948104873328	96.141661517350	597.883262126026	826.793585377781	990.448276751837	563.931186646967	1034.624227586262	1407.586971442373	374.109588423851	1119.989405190633	1342.416327984967	545.309744455764	1027.301523277117	1425.053772862667	709.102494402895	1007.836668026187	1477.456874973793	528.171512552954	1057.775641030361	927.594020245999	684.488438020555	1044.601189872474	944.309994832855	410.136816158454	1116.846885051772	735.533207096697	633.551716488875	1048.827056196449	613.374678408125	685.129647463231	1125.375413835988	573.840340911147	596.280619932770	1133.766311152568	478.300424088592	595.499407064041	1116.560804792217	750.309042471834	438.072307939324	1061.181365629122	627.800908895398	358.091398797471	1154.684521070471	556.469881467611	424.363517077063	1158.700089207792	468.313641919999	413.522521985052	1089.597071059985	407.943289837883	395.932842314971	949.395002656689	373.819813371071	337.050223282443	930.681293692855	240.229714040227	378.945950667985	1090.899428345180	389.934514995482	599.934548602630	1011.081964027802	292.694636241162	662.817361369350	1032.447777604505	197.724744714411	593.068955468226	877.101405380094	43.886565279994	569.443929772045	963.207281694363	37.382415004635	639.942770190268	1170.962834007883	43.408373957920	621.438008598236	737.751765128748	182.648160157869	405.763894990681	794.839556581655	138.523806469644	324.130266591650	899.448934109239	138.704876269723	347.510881545251	972.133572364477	31.063640275917	314.490146979333	1061.653573621107	1053.132109427413	262.894573029652	1192.135779646454	836.387325102824	264.874474455990	978.150468354385	1082.865803307433	841.408010996424	1066.249162966850	838.943160760275	865.206676709088	
5	20.385714285714	1045.051916344830	96.020758008162	597.597841446004	825.349975095891	987.500390217468	570.084214320888	1028.518114980547	1404.178989484022	374.824106364692	1118.252541090654	1339.569837207261	544.032489692895	1029.852619005350	1422.514444148685	710.126464558109	1006.104084690816	1474.678229433366	529.373105792656	1058.925764732432	925.058568229165	685.838580236608	1039.945129383865	942.347452330530	412.093190153040	1118.585863661449	733.655069944800	633.365938990169	1052.338171750053	610.747815200295	685.063322437981	1127.702791249154	572.204789067325	594.584465338280	1136.403863949549	475.909203874020	593.234210326646	1118.358854859327	752.931335014460	441.503758521114	1068.007033365139	628.644135743575	361.551909254436	1163.387233474406	560.165330255871	428.870841349924	1169.738085521282	471.175120910092	417.424678576319	1100.136252442464	409.903859503668	399.353698592926	958.870636481902	377.429954665053	341.171761047958	939.570137392449	243.401183423327	382.049142926345	1091.955660510927	387.647321367098	598.378513390512	1011.055161481521	291.596138269460	662.005430947556	1029.971106481895	196.432491638222	592.198574876381	872.137559870293	43.957887103479	569.524107105413	958.242411457675	37.429806125185	639.991958326105	1166.027386583931	43.052347598421	621.415469884649	746.007680917774	187.845603382894	409.605434500441	801.890007434533	144.267634412036	326.784869494139	906.952163742288	142.156214226536	349.676979407262	977.339771834595	31.635412338424	313.825919143793	1038.391283342491	1046.674174702553	268.684510706927	1142.506126483015	815.479607051612	268.757896639130	997.440988792917	1079.251693797922	846.337415740414	1106.316251464728	844.137113158847	867.891988994441	
